<?xml version="1.0" encoding="UTF-8" standalone="no"?>
<!-- Created with Inkscape (http://www.inkscape.org/) -->

<svg
   width="136.11885"
   height="46.778786"
   viewBox="0 0 36.014778 12.376887"
   version="1.1"
   id="svg1"
   inkscape:export-filename="logo@2xx.png"
   inkscape:export-xdpi="96"
   inkscape:export-ydpi="96"
   xml:space="preserve"
   xmlns:inkscape="http://www.inkscape.org/namespaces/inkscape"
   xmlns:sodipodi="http://sodipodi.sourceforge.net/DTD/sodipodi-0.dtd"
   xmlns="http://www.w3.org/2000/svg"
   xmlns:svg="http://www.w3.org/2000/svg"><sodipodi:namedview
     id="namedview1"
     pagecolor="#ffffff"
     bordercolor="#000000"
     borderopacity="0.25"
     inkscape:showpageshadow="2"
     inkscape:pageopacity="0.0"
     inkscape:pagecheckerboard="0"
     inkscape:deskcolor="#d1d1d1"
     inkscape:document-units="mm"><inkscape:page
       x="0"
       y="0"
       width="36.014778"
       height="12.376887"
       id="page2"
       margin="0"
       bleed="0" /></sodipodi:namedview><defs
     id="defs1"><style
       id="style1">
      .cls-1 {
        letter-spacing: -.03em;
      }

      .cls-2, .cls-3 {
        fill: #988342;
      }

      .cls-4 {
        fill: #484724;
      }

      .cls-5 {
        letter-spacing: 0em;
      }

      .cls-3 {
        font-family: LibreBaskerville-Bold, 'Libre Baskerville';
        font-size: 78.06px;
        font-weight: 700;
      }
    </style><style
       id="style1-2">
      .cls-1 {
        letter-spacing: -.03em;
      }

      .cls-2, .cls-3 {
        fill: #988342;
      }

      .cls-4 {
        fill: #484724;
      }

      .cls-5 {
        letter-spacing: 0em;
      }

      .cls-3 {
        font-family: LibreBaskerville-Bold, 'Libre Baskerville';
        font-size: 78.06px;
        font-weight: 700;
      }
    </style><style
       id="style1-5">
      .cls-1 {
        letter-spacing: -.03em;
      }

      .cls-2, .cls-3 {
        fill: #988342;
      }

      .cls-4 {
        fill: #484724;
      }

      .cls-5 {
        letter-spacing: 0em;
      }

      .cls-3 {
        font-family: LibreBaskerville-Bold, 'Libre Baskerville';
        font-size: 78.06px;
        font-weight: 700;
      }
    </style><style
       id="style1-7">
      .cls-1 {
        letter-spacing: -.03em;
      }

      .cls-2 {
        fill: #fff;
      }

      .cls-3, .cls-4 {
        fill: #988342;
      }

      .cls-5 {
        fill: #2d2c17;
      }

      .cls-6 {
        letter-spacing: 0em;
      }

      .cls-4 {
        font-family: LibreBaskerville-Bold, 'Libre Baskerville';
        font-size: 78.06px;
        font-weight: 700;
      }
    </style></defs><g
     id="g2"
     transform="matrix(0.12004584,0,0,0.12004584,14.420006,2.5092137)"><path
       id="path24"
       d="M 4.8902168,28.740762 H -2.4810754 V 24.443928 H 2.8620972 L -15.310546,6.2688157 -33.483541,24.443928 h 5.343525 v 4.296834 h -7.37482 c -0.214136,-0.910167 -0.371475,-1.837973 -0.461433,-2.790473 -0.05997,-0.649111 -0.09172,-1.305278 -0.09172,-1.9685 0,-0.663222 0.03175,-1.319389 0.09172,-1.9685 v -0.0035 c 0.402167,-4.247445 2.088444,-8.124473 4.66725,-11.239501 0.416278,-0.500944 0.853722,-0.9842496 1.312334,-1.4428607 0.01058,-0.010583 0.02117,-0.021167 0.03175,-0.03175 0.458611,-0.4586112 0.941916,-0.8960557 1.442861,-1.3123335 3.115028,-2.5752779 6.995584,-4.2615558 11.2395,-4.6637225 0.649112,-0.059972 1.308806,-0.091722 1.972028,-0.091722 0.663223,0 1.319389,0.03175 1.968501,0.091722 4.2474442,0.4021667 8.1244722,2.0884446 11.2395002,4.6672503 0.5009445,0.41275 0.9807223,0.8466667 1.43933344,1.3052779 0.0141111,0.014111 0.0282222,0.028222 0.0423333,0.042333 0.45508336,0.4586112 0.89252784,0.9383895 1.30527786,1.4358055 2.5788058,3.115028 4.2650836,6.995584 4.6672503,11.243029 0.059972,0.649111 0.091722,1.305278 0.091722,1.9685 0,0.663222 -0.03175,1.319389 -0.091722,1.9685 -0.089958,0.9525 -0.2472972,1.880306 -0.4614333,2.790473 z m -4.20581697,8.452556 c -0.41275002,0.497416 -0.8501945,0.977194 -1.30527786,1.435805 -0.0141111,0.01764 -0.0282222,0.02822 -0.0423333,0.04233 -0.45861117,0.455083 -0.93838897,0.892527 -1.43580567,1.305278 -3.115028,2.582333 -6.9991116,4.268611 -11.246556,4.670778 -7.06e-4,0 -0.0018,0 -0.0025,0.0035 l 2.321631,-12.92225 H 3.9359528 c 0.00212,0 0.00388,0 0.006,0 -0.8046861,1.993194 -1.9071167,3.834694 -3.25755017,5.464528 z M -5.3449255,28.740762 H -25.276166 v -8.406695 l 9.96562,-9.962445 9.9656205,9.962445 z M -17.282574,44.647513 c -4.247444,-0.402167 -8.124472,-2.088445 -11.2395,-4.670778 -0.500945,-0.412751 -0.98425,-0.850195 -1.442861,-1.308806 -0.01058,-0.01058 -0.02117,-0.01764 -0.03175,-0.03175 -0.458612,-0.458611 -0.896056,-0.941917 -1.312334,-1.442861 -1.35008,-1.629834 -2.452511,-3.471334 -3.257197,-5.464528 h 15.100301 l 2.269772,12.925778 c -0.02752,-0.0035 -0.05539,-0.0035 -0.0829,-0.0071 z m -20.231806,1.534583 v 0 l 4.737806,-4.734278 z M 16.10079,23.981789 9.3662615,22.750595 C 9.0946226,17.226094 6.9991225,12.174316 3.6689,8.1808714 L 2.8575111,9.4191215 C 5.7749835,13.045677 7.6270669,17.561233 7.9375114,22.489539 L 6.7909836,22.277872 C 6.4417335,17.7094 4.6990112,13.525455 1.9861499,10.145844 1.8344555,9.951816 1.6757055,9.761316 1.5134277,9.5708159 L 2.1766499,8.6077325 3.00215,7.4118158 6.9003447,1.767371 1.2594276,5.6655657 C -2.607017,2.1660099 -7.581184,-0.13057356 -13.063351,-0.62799026 L -12.76349,0.8219265 C -7.8810452,1.354621 -3.4431004,3.40426 0.05998313,6.4910657 L -0.89957249,7.154288 C -4.1909894,4.3320656 -8.3220174,2.4517599 -12.85874,1.9508155 c -0.246944,-0.028222 -0.497417,-0.049389 -0.747889,-0.070556 l -0.211667,-1.15005563 h 0.0035 l -0.264583,-1.42875009 -1.231195,-6.73452818 -1.234722,6.73452818 c -5.5245,0.27163891 -10.579806,2.36713902 -14.569723,5.69383372 l 1.241778,0.8149167 c 3.626556,-2.9139446 8.142111,-4.7695559 13.06689,-5.08000033 L -17.01799,1.8802599 c -4.568473,0.34925 -8.752417,2.0919724 -12.128501,4.7977781 -0.194028,0.1552222 -0.388056,0.3139722 -0.575028,0.47625 L -30.684602,6.4910657 -31.880519,5.6620379 -37.521436,1.767371 h -0.0035 l 3.898195,5.6444448 C -37.129825,11.274733 -39.42288,16.2489 -39.920297,21.731067 l 1.449917,-0.299861 c 0.532694,-4.885973 2.582333,-9.32039 5.669139,-12.8234735 l 0.663222,0.9630834 c -2.82575,3.2914171 -4.702528,7.4189171 -5.207,11.9521121 -0.02822,0.246944 -0.04939,0.500944 -0.07056,0.751417 v 0.0035 l -1.146527,0.211667 c 0,-0.0035 0,-0.0035 0,-0.0071 l -1.428751,0.264584 v 0.0035 l -6.734528,1.231194 6.734528,1.231195 c 0.271639,5.528028 2.36714,10.579806 5.693834,14.573251 l 0.814917,-1.238251 c -2.917473,-3.626555 -4.769556,-8.145639 -5.08,-13.073945 l 1.146527,0.211667 c 0.34925,4.568472 2.091973,8.755945 4.801306,12.132028 0.155223,0.194028 0.313973,0.388056 0.47625,0.575028 l -0.663222,0.963084 -0.829028,1.195916 -3.891139,5.63739 v 0 0 0 l -0.0035,0.0035 h 0.0035 v 0 l 0.0018,-0.0035 h 0.0018 0.0011 l 5.632803,-3.89114 c 3.866445,3.503084 8.840612,5.799667 14.329835,6.293556 l -0.303389,-1.449916 c -4.889501,-0.529167 -9.327445,-2.582334 -12.830529,-5.66914 l 0.963083,-0.66675 c 3.291417,2.829278 7.422445,4.706056 11.959168,5.210528 0.246944,0.02822 0.497417,0.05292 0.747889,0.07056 h 0.0035 l 0.208139,1.146528 0.261055,1.42875 1.234722,6.731 v 0.179917 l 1.241425,-6.910917 C -8.5487435,48.39039 -3.4969654,46.29489 0.49400982,42.964667 l -1.24177786,-0.811388 c -3.62514466,2.913944 -8.13858386,4.769555 -13.06477296,5.08 l 0.206022,-1.143 v -0.0035 c 4.5684727,-0.34925 8.7559452,-2.091972 12.1320287,-4.804834 0.1940278,-0.155222 0.3880556,-0.313972 0.57502781,-0.47625 l 0.96308339,0.66675 1.1959167,0.8255 5.6409171,3.894667 -3.8946669,-5.640917 C 6.5017058,36.685318 8.801817,31.714678 9.2957059,26.225456 L 7.8457892,26.528845 C 7.3130947,31.414817 5.2634557,35.852762 2.1766499,39.355846 L 1.5134277,38.392762 C 4.3391778,35.101345 6.2159557,30.970317 6.720428,26.433595 6.74865,26.18665 6.769817,25.936178 6.790984,25.685706 l 1.1465278,-0.211667 1.4287501,-0.261055 1.2311941,-0.225778 5.49275,-1.005417 h 0.01058"
       style="fill:#907f35;fill-opacity:1;fill-rule:nonzero;stroke:none;stroke-width:0.0352778" /><path
       id="path25"
       d="m -18.81751,25.378789 h 3.097389 V 22.2814 h -3.097389 v 3.097389"
       style="fill:#907f35;fill-opacity:1;fill-rule:nonzero;stroke:none;stroke-width:0.0352778" /><path
       id="path26"
       d="m -11.603556,18.164483 h -3.097037 v 3.097389 h 3.097037 v -3.097389"
       style="fill:#907f35;fill-opacity:1;fill-rule:nonzero;stroke:none;stroke-width:0.0352778" /><path
       id="path27"
       d="m -18.81751,21.261872 h 3.097389 v -3.097389 h -3.097389 v 3.097389"
       style="fill:#907f35;fill-opacity:1;fill-rule:nonzero;stroke:none;stroke-width:0.0352778" /><path
       id="path28"
       d="m -11.603556,22.2814 h -3.097037 v 3.097389 h 3.097037 V 22.2814"
       style="fill:#907f35;fill-opacity:1;fill-rule:nonzero;stroke:none;stroke-width:0.0352778" /><path
       id="path29"
       d="m 89.32335,42.407374 c -2.804584,-0.913695 -2.568223,-2.93864 -2.462389,-5.362223 V 15.959622 c 0,-2.3495 -1.23825,-6.007806 -2.677584,-7.9057506 C 77.960377,-0.15879578 63.545876,4.0498434 57.418126,10.48451 51.198653,-0.14115689 37.736652,3.0408989 29.739179,9.7860104 V 3.4395378 L 12.848178,8.410177 c -0.08114,0.3316111 -0.07408,0.6138333 0,0.8607778 V 10.77026 c 0,0 2.127251,0.123473 3.760612,1.245306 0.758472,0.518583 1.414639,1.248834 1.700389,2.286 0,0.0035 0.0035,0.01058 0.0035,0.01411 0.03881,0.137584 0.07761,0.261056 0.123473,0.370417 0.119944,0.405695 0.208139,0.853722 0.278694,1.361722 0.6985,5.139973 0.508,16.774585 0.105834,22.140335 -0.08467,1.143 -0.278695,2.921 -1.234723,3.700639 -1.104194,0.896056 -4.593167,0.874889 -4.769556,1.04775 -0.130527,0.127 0.08114,1.975556 -0.0035,2.462389 h 22.919973 c -0.109361,-0.550333 0.1905,-2.159 -0.03881,-2.430639 -0.673806,-0.797278 -5.330473,0.529167 -5.933723,-3.407833 l -0.01411,-26.063224 c 3.167945,-4.4979171 15.395576,-10.1917508 16.84514,-2.405945 1.258358,6.762751 0.908403,21.166668 0.691444,28.405669 -0.186972,0.585611 -0.342194,1.284111 -0.66675,1.799166 -1.255889,1.975556 -4.98475,1.386417 -5.242278,1.633362 -0.116416,0.112889 0.08114,1.989666 0,2.469444 h 22.567196 c 0.631472,-4.367389 -1.8415,-2.084916 -3.8735,-3.002139 -0.236361,-0.105833 -0.496006,-0.366889 -0.741186,-0.702028 -0.672395,-0.913694 -1.005064,-2.032 -1.00577,-3.164416 l -0.0134,-25.033112 C 60.949431,9.553177 70.107543,4.7095379 73.97046,9.1016215 c 1.354667,1.5451665 1.845028,4.8295285 1.975556,6.8403615 0.07055,1.097139 0.109361,2.208389 0.127,3.326695 v 0.05644 c 0.01764,0.966611 0.01411,1.93675 0,2.913945 v 16.615834 c 0,2.257778 -1.830917,4.088695 -4.092223,4.088695 h -2.049639 l 0.0035,-0.01764 c -0.0035,0.0035 -0.0035,0.0035 -0.0035,0.0035 -0.112889,0.112889 0.08467,1.989666 0.0035,2.469444 H 92.50185 c 0.522111,-3.598333 -0.853722,-2.229555 -3.178528,-2.991555"
       style="fill:#414121;fill-opacity:1;fill-rule:nonzero;stroke:none;stroke-width:0.0352778" /><path
       id="path30"
       d="m 137.97776,39.588679 c -0.17992,-0.1905 -1.05128,-1.665111 -1.05128,-1.770945 V 4.4978712 h -16.92275 c -0.56797,3.6935835 1.20297,2.303639 3.36197,3.5171946 2.26836,1.2735279 2.8187,4.4520562 2.99861,6.8721112 0.30339,4.078112 0.10936,8.374945 -0.0212,12.650612 -0.0952,2.991556 -0.15875,5.976056 0,8.861779 -0.0353,0.183444 -0.11642,0.373944 -0.23989,0.567972 -0.0106,0.01764 -0.0176,0.03175 -0.0282,0.04939 -1.06187,1.845028 -4.35681,3.852333 -4.35681,3.852333 0,0 -3.28789,1.919112 -7.45067,1.329973 -0.14464,-0.01764 -0.28928,-0.03881 -0.43391,-0.0635 l -0.26106,-0.03175 c -0.74436,-0.08819 -1.43933,-0.321028 -2.05669,-0.66675 -1.71803,-0.956028 -2.8575,-2.786945 -2.8575,-4.861278 v -7.84578 L 108.36912,4.4978712 H 91.442839 c 0.08819,0.5256389 -0.130528,2.6916946 0,2.8186946 0.07761,0.070556 1.439333,0.045861 2.049639,0.2434167 1.686278,0.5468056 3.242028,1.4710834 3.781778,3.2737775 0.08467,0.289278 0.515056,2.504723 0.515056,2.656417 v 16.506474 c 0,0 0,0.04939 0,0.141111 0,0.963083 0.02822,6.625167 0.702027,8.646584 2.695221,6.455833 8.611311,8.763 15.476361,7.574139 0.0141,-0.0035 0.0282,-0.0035 0.0423,-0.0071 6.11717,-1.107722 12.33312,-6.642806 12.33312,-6.642806 v 0.758473 c 0.004,-0.0035 0.004,-0.0035 0.007,-0.0035 v 5.993695 l 16.59467,-2.973917 c 0.46567,-0.306917 0.42333,-2.568223 0.32456,-2.663473 -0.32103,-0.310444 -4.01814,0.127 -5.29167,-1.231194"
       style="fill:#414121;fill-opacity:1;fill-rule:nonzero;stroke:none;stroke-width:0.0352778" /><path
       id="path31"
       d="m 177.11634,26.546484 c -2.36749,-2.984501 -7.68774,-5.115278 -11.14849,-6.836834 -3.84351,-1.908528 -16.82855,-5.669139 -11.07228,-11.8745008 4.69406,-5.0623615 12.47317,1.8097501 15.71025,5.4751118 1.6824,1.905 2.44511,4.974167 5.46206,4.236861 L 175.67806,6.297038 c -4.72722,-1.3934724 -9.5257,-3.1291391 -14.55279,-2.8081113 -13.30289,0.8466667 -19.12161,14.6685013 -7.59283,22.6624463 4.76638,3.305528 13.24504,5.0165 17.20885,8.882945 2.77954,2.712861 0.64947,7.002639 -2.70051,8.15975 -6.235,2.148417 -12.15426,-4.66725 -15.32608,-9.172223 -1.52859,-2.169583 -1.12713,-3.697111 -4.50356,-3.076222 V 43.28579 c 8.36965,2.945695 18.06892,5.715001 25.99725,0.08114 5.42396,-3.855861 7.20125,-11.412362 2.90795,-16.820445"
       style="fill:#414121;fill-opacity:1;fill-rule:nonzero;stroke:none;stroke-width:0.0352778" /><path
       id="path32"
       d="m -60.571937,18.732455 c -2.032,16.510001 -16.383001,26.92753 -32.832995,23.756057 -3.841856,-0.740833 -5.326945,-2.645833 -5.626806,-6.420556 V -0.26462912 c 0,-3.82763918 0.123472,-7.59177828 0.46923,-11.23597288 0.275025,-2.871611 1.097033,-4.586111 2.610556,-5.577417 1.255783,-0.8255 2.984394,-1.157111 5.27745,-1.23825 0.03528,0 0.07055,-0.0035 0.105833,-0.0035 22.45787,-0.723194 32.557898,16.2171955 29.996732,37.052252 z m -18.453807,-39.634585 -41.095086,0.01058 v 2.751667 l 3.25617,0.169333 c 2.61056,0.426861 5.81382,1.284111 6.23355,4.342695 V 6.8015102 37.309734 c -0.34575,3.150306 -1.55924,4.490862 -4.88597,5.111751 -0.48327,0.09172 -0.96654,0.123472 -1.43233,0.134055 l -3.17142,-0.02822 v 2.875139 c 14.6086,-0.232833 29.294598,0.479778 43.860864,-0.398639 40.569447,-5.252861 38.819669,-63.42592 -2.765778,-65.905948"
       style="fill:#414121;fill-opacity:1;fill-rule:nonzero;stroke:none;stroke-width:0.0352778" /><path
       id="path33"
       d="m 104.35125,55.24065 c -1.45934,-0.938444 -3.52226,-1.405599 -6.168095,-1.405599 h -9.529133 v 1.099675 c 0.74414,0.02894 1.322916,0.140559 1.682584,0.305924 0.355534,0.165365 0.603581,0.467155 0.744141,0.880566 0.107487,0.438217 0.165364,1.099675 0.165364,1.955437 v 12.72067 c 0,0.855761 -0.08268,1.517219 -0.223242,1.955436 -0.136426,0.467154 -0.413411,0.773079 -0.826823,0.938444 -0.409277,0.165364 -1.045931,0.248046 -1.843815,0.248046 v 1.099675 h 10.934733 v -1.099675 c -1.157552,0 -2.013314,-0.08268 -2.59209,-0.248046 -0.574642,-0.165365 -0.93431,-0.496094 -1.128613,-0.967383 -0.190169,-0.467155 -0.272852,-1.153418 -0.272852,-2.062923 v -5.399154 c 0.301791,0 0.603581,0.08268 0.963249,0.276986 0.330729,0.194303 0.715202,0.578776 1.182357,1.128613 l 6.829555,8.371582 h 6.52777 v -1.099675 c -0.63252,0 -1.24024,-0.140559 -1.84382,-0.413411 -0.60771,-0.248047 -1.13274,-0.636654 -1.57096,-1.157552 l -6.38721,-7.325651 c 1.9265,-0.359668 3.3321,-1.045931 4.21267,-2.067057 0.88056,-1.016992 1.31878,-2.31097 1.31878,-3.824056 0,-1.682584 -0.7152,-2.976562 -2.17455,-3.910872 z m -8.561747,0.136426 h 2.393652 c 1.269173,0 2.257225,0.359668 2.972425,1.07487 0.71934,0.715201 1.07487,1.649511 1.07487,2.836002 0,1.513086 -0.41341,2.616894 -1.26504,3.303157 -0.85576,0.690398 -2.149735,1.021127 -3.881929,1.021127 h -1.790072 v -7.768001 c 0,-0.301791 0.165365,-0.467155 0.496094,-0.467155 z m 25.776207,17.623729 c -0.77308,0.359668 -1.54203,0.525033 -2.31511,0.525033 -1.34772,0 -2.39365,-0.525033 -3.16673,-1.599902 -0.79788,-1.045931 -1.18236,-2.45153 -1.18236,-4.237467 0,-0.442351 0.0248,-0.744141 0.10749,-0.909506 h 8.86767 c 0.41342,0 0.6904,-0.02894 0.77309,-0.111621 0.0827,-0.05374 0.13642,-0.219108 0.13642,-0.525032 0,-1.86862 -0.54983,-3.327963 -1.62471,-4.402832 -1.07487,-1.045931 -2.58795,-1.570964 -4.54339,-1.570964 -1.54202,0 -2.91868,0.330729 -4.10517,0.992188 -1.18236,0.661458 -2.1208,1.570963 -2.77813,2.724381 -0.6904,1.186491 -1.02112,2.534212 -1.02112,4.047298 0,1.459343 0.33072,2.728516 0.96324,3.82819 0.63252,1.128613 1.51722,1.984375 2.64584,2.616895 1.12861,0.632519 2.45153,0.938443 3.96461,0.938443 2.50528,0 4.57233,-0.938443 6.25078,-2.836002 l -0.77307,-0.967383 c -0.71521,0.636654 -1.45935,1.128613 -2.19935,1.488281 z m -5.15111,-10.26914 c 0.60358,-0.636653 1.29398,-0.967382 2.09186,-0.967382 0.6904,0 1.26917,0.248046 1.73633,0.773079 0.46715,0.520899 0.68626,1.182357 0.68626,1.980241 0,0.305924 -0.10748,0.496093 -0.30179,0.578776 -0.1943,0.08268 -0.68626,0.14056 -1.4304,0.14056 h -3.99356 c 0.19017,-1.021126 0.57878,-1.847949 1.2113,-2.505274 z m 11.42979,6.742741 c -0.74414,0.719336 -1.13274,1.51722 -1.13274,2.426725 0,0.578776 0.14055,1.128613 0.44234,1.649512 0.30179,0.525032 0.74415,0.938444 1.32292,1.240234 0.57878,0.330729 1.29398,0.496094 2.14561,0.496094 1.02112,0 1.98437,-0.248047 2.836,-0.77308 0.85576,-0.520898 1.54202,-1.2361 2.03812,-2.145605 h 0.14056 c 0,0.963249 0.21911,1.67845 0.68626,2.174544 0.44235,0.525033 1.07487,0.773079 1.9265,0.773079 0.66146,0 1.26917,-0.140559 1.81901,-0.413411 0.54983,-0.276986 0.93844,-0.636654 1.18235,-1.07487 l -0.40927,-0.797884 c -0.30593,0.248047 -0.60772,0.355534 -0.90951,0.355534 -0.35966,0 -0.60771,-0.190169 -0.74414,-0.578776 -0.16536,-0.355534 -0.24804,-0.963249 -0.24804,-1.761133 v -6.031673 c 0,-1.761132 -0.44236,-3.001367 -1.32292,-3.741373 -0.88057,-0.74414 -2.36885,-1.103809 -4.46071,-1.103809 -1.89756,0 -3.3321,0.248047 -4.29534,0.77308 -0.96325,0.520898 -1.45935,1.265039 -1.45935,2.199349 0,0.525032 0.13643,0.909505 0.44235,1.215429 0.27285,0.301791 0.65733,0.467155 1.18236,0.467155 0.52503,0 0.93431,-0.14056 1.24023,-0.413411 0.30179,-0.276986 0.54984,-0.63252 0.68626,-1.045931 0.24805,-0.690397 0.52504,-1.186491 0.79789,-1.459343 0.27699,-0.248047 0.6904,-0.388606 1.21543,-0.388606 1.51309,0 2.28203,1.021126 2.28203,3.059244 v 1.157552 l -3.85299,1.649512 c -1.62471,0.690397 -2.8112,1.405599 -3.55121,2.091862 z m 6.99079,1.790071 c -0.27285,0.471289 -0.63252,0.826823 -1.07074,1.07487 -0.44235,0.248047 -0.9095,0.384473 -1.43453,0.384473 -0.5209,0 -0.96325,-0.136426 -1.26504,-0.438216 -0.30179,-0.301791 -0.46716,-0.690397 -0.46716,-1.186491 0,-0.438216 0.13643,-0.851628 0.43822,-1.2361 0.30592,-0.388607 0.77308,-0.797885 1.45934,-1.211296 0.6904,-0.413411 1.5999,-0.909505 2.75332,-1.459342 v 2.61276 c 0,0.525033 -0.13642,1.021126 -0.41341,1.459342 z m 7.16235,-18.037141 v 0.938444 c 0.85163,0 1.43041,0.08268 1.76113,0.219108 0.3018,0.14056 0.52504,0.442351 0.60772,0.909506 0.0537,0.248046 0.10749,0.715201 0.13643,1.405598 0.0289,0.686264 0.0537,1.56683 0.0537,2.641699 V 70.71464 c 0,0.855762 -0.0537,1.51722 -0.16537,1.955436 -0.13642,0.467155 -0.35553,0.77308 -0.7152,0.938444 -0.35553,0.19017 -0.88056,0.301791 -1.56683,0.330729 v 1.099675 h 8.67338 v -1.099675 c -0.6904,-0.02894 -1.2113,-0.140559 -1.57097,-0.305924 -0.35553,-0.136426 -0.57877,-0.467155 -0.66146,-0.93431 -0.10748,-0.467155 -0.16536,-1.211295 -0.16536,-2.174544 V 52.181405 Z m 12.06232,18.727538 c 0,1.07487 0.35553,1.901693 1.07486,2.476335 0.68627,0.578776 1.67846,0.8847 2.94349,0.8847 1.9017,0 3.11299,-0.661458 3.63802,-1.955436 l -0.57877,-0.797884 c -0.35967,0.657324 -0.90951,0.988054 -1.62471,0.988054 -0.57878,0 -0.99219,-0.248047 -1.24023,-0.744141 -0.24805,-0.467155 -0.38448,-1.265039 -0.38448,-2.393652 v -8.454264 h 3.16674 V 60.4455 h -3.16674 v -3.332096 h -1.40559 c -0.35967,0.797884 -0.93845,1.542025 -1.67846,2.174544 -0.74413,0.632519 -1.68258,1.128613 -2.75331,1.430404 v 1.240234 h 2.00918 z m 23.23992,-8.25996 c 0.33073,-0.607715 0.63252,-1.07487 0.88056,-1.37666 0.24805,-0.305925 0.52504,-0.525033 0.79789,-0.636654 0.24805,-0.08268 0.55397,-0.136426 0.90951,-0.136426 V 60.4455 h -6.63526 v 1.099674 c 0.79788,0 1.34772,0.08268 1.62471,0.248047 0.24805,0.165365 0.38447,0.496094 0.38447,0.963249 0,0.194303 -0.0248,0.44235 -0.0827,0.690397 -0.0827,0.248047 -0.19017,0.603581 -0.35554,1.016992 -0.1943,0.442351 -0.44235,1.045931 -0.77308,1.819011 l -2.36884,5.370214 H 171.574 l -2.8112,-8.040852 c -0.0827,-0.194304 -0.13642,-0.413412 -0.16536,-0.607715 -0.0537,-0.19017 -0.0827,-0.355534 -0.0827,-0.496094 0,-0.355534 0.14055,-0.632519 0.44234,-0.768945 0.27286,-0.14056 0.76895,-0.194304 1.48829,-0.194304 V 60.4455 h -8.34678 v 1.099674 c 0.47129,0.02894 0.85576,0.08268 1.12862,0.194304 0.27698,0.107487 0.52503,0.330729 0.74413,0.661458 0.19431,0.355534 0.44236,0.880567 0.7152,1.595768 l 4.87413,12.059212 -0.74001,1.434538 c -0.47129,0.909505 -1.54202,1.405599 -3.16673,1.542024 -0.71934,0.05374 -1.24023,0.219108 -1.54203,0.467155 -0.33072,0.248047 -0.49609,0.607715 -0.49609,1.07487 0,0.496094 0.19017,0.880566 0.54984,1.182357 0.35553,0.305924 0.85162,0.44235 1.45934,0.44235 0.79788,0 1.59577,-0.276986 2.39365,-0.826823 0.80202,-0.525032 1.37666,-1.211296 1.76527,-2.009179 l 6.30452,-13.220898 c 0.46716,-1.016992 0.88057,-1.843815 1.2113,-2.447396 z m 0,0"
       style="fill:#907f35;fill-opacity:1;fill-rule:nonzero;stroke:none;stroke-width:0.352778"
       aria-label="Realty" /></g></svg>
