<?xml version="1.0" encoding="UTF-8"?>
<svg id="Layer_1" data-name="Layer 1" xmlns="http://www.w3.org/2000/svg" viewBox="0 0 250 250">
  <defs>
    <style>
      .cls-1 {
        fill: #988342;
      }
    </style>
  </defs>
  <path class="cls-1" d="m214.05,124.75l-19.09-3.49c-.77-15.66-6.71-29.98-16.15-41.3l-2.3,3.51c8.27,10.28,13.52,23.08,14.4,37.05l-3.25-.6c-.99-12.95-5.93-24.81-13.62-34.39-.43-.55-.88-1.09-1.34-1.63l1.88-2.73,2.34-3.39,11.05-16-15.99,11.05c-10.96-9.92-25.06-16.43-40.6-17.84l.85,4.11c13.84,1.51,26.42,7.32,36.35,16.07l-2.72,1.88c-9.33-8-21.04-13.33-33.9-14.75-.7-.08-1.41-.14-2.12-.2l-.6-3.26h.01l-.75-4.05-3.49-19.09-3.5,19.09c-15.66.77-29.99,6.71-41.3,16.14l3.52,2.31c10.28-8.26,23.08-13.52,37.04-14.4l-.6,3.26c-12.95.99-24.81,5.93-34.38,13.6-.55.44-1.1.89-1.63,1.35l-2.73-1.88-3.39-2.35-15.99-11.04h-.01l11.05,16c-9.93,10.95-16.43,25.05-17.84,40.59l4.11-.85c1.51-13.85,7.32-26.42,16.07-36.35l1.88,2.73c-8.01,9.33-13.33,21.03-14.76,33.88-.08.7-.14,1.42-.2,2.13h0s-3.25.61-3.25.61v-.02l-4.05.75h0s-19.09,3.5-19.09,3.5l19.09,3.49c.77,15.67,6.71,29.99,16.14,41.31l2.31-3.51c-8.27-10.28-13.52-23.09-14.4-37.06l3.25.6c.99,12.95,5.93,24.82,13.61,34.39.44.55.89,1.1,1.35,1.63l-1.88,2.73-2.35,3.39-11.03,15.98h-.01s.01.01.01.01h0s0-.01,0-.01h0s15.97-11.03,15.97-11.03c10.96,9.93,25.06,16.44,40.62,17.84l-.86-4.11c-13.86-1.5-26.44-7.32-36.37-16.07l2.73-1.89c9.33,8.02,21.04,13.34,33.9,14.77.7.08,1.41.15,2.12.2h.01l.59,3.25.74,4.05,3.5,19.08v.5l3.52-19.58c15.65-.78,29.97-6.71,41.28-16.15l-3.52-2.3c-10.28,8.26-23.07,13.52-37.03,14.4l.58-3.25h0c12.95-.99,24.82-5.93,34.39-13.62.55-.44,1.1-.89,1.63-1.35l2.73,1.89,3.39,2.34,15.99,11.04-11.04-15.99c9.91-10.96,16.43-25.05,17.83-40.61l-4.11.86c-1.51,13.85-7.32,26.43-16.07,36.36l-1.88-2.73c8.01-9.33,13.33-21.04,14.76-33.9.08-.7.14-1.41.2-2.12l3.25-.6,4.05-.74,3.49-.64,15.57-2.85h.03Zm-151.98,62.93h0s13.43-13.42,13.43-13.42l-13.43,13.42Zm57.35-4.35c-12.04-1.14-23.03-5.92-31.86-13.24-1.42-1.17-2.79-2.41-4.09-3.71-.03-.03-.06-.05-.09-.09-1.3-1.3-2.54-2.67-3.72-4.09-3.83-4.62-6.95-9.85-9.23-15.5h42.8l6.43,36.64c-.08,0-.16,0-.23-.02h-.01Zm33.84-45.1h-56.5v-23.82l28.25-28.25,28.25,28.25v23.82Zm17.09,23.97c-1.17,1.41-2.41,2.77-3.7,4.07-.04.05-.08.08-.12.12-1.3,1.29-2.66,2.53-4.07,3.7-8.83,7.32-19.84,12.1-31.88,13.24,0,0,0,0,0,0l6.58-36.63h42.41s.01,0,.02,0c-2.28,5.65-5.41,10.87-9.23,15.5Zm11.92-23.97h-20.9v-12.18h15.15l-51.51-51.51-51.51,51.51h15.15v12.18h-20.91c-.61-2.58-1.05-5.21-1.31-7.9-.17-1.84-.26-3.7-.26-5.58s.09-3.74.26-5.58h0c1.14-12.05,5.92-23.04,13.23-31.87,1.18-1.42,2.42-2.79,3.72-4.09.03-.03.06-.06.09-.09,1.3-1.3,2.67-2.54,4.09-3.72,8.83-7.3,19.83-12.08,31.86-13.22,1.84-.17,3.71-.26,5.59-.26s3.74.09,5.58.26c12.04,1.14,23.03,5.92,31.86,13.23,1.42,1.17,2.78,2.4,4.08,3.7.04.04.08.08.12.12,1.29,1.3,2.53,2.66,3.7,4.07,7.31,8.83,12.09,19.83,13.23,31.87.17,1.84.26,3.7.26,5.58s-.09,3.74-.26,5.58c-.25,2.69-.7,5.33-1.31,7.9Z"/>
  <rect class="cls-1" x="115.06" y="119.93" width="8.78" height="8.78"/>
  <rect class="cls-1" x="126.73" y="108.26" width="8.78" height="8.78"/>
  <rect class="cls-1" x="115.06" y="108.26" width="8.78" height="8.78"/>
  <rect class="cls-1" x="126.73" y="119.93" width="8.78" height="8.78"/>
</svg>