<?xml version="1.0" encoding="UTF-8" standalone="no"?>
<!-- Created with Inkscape (http://www.inkscape.org/) -->

<svg
   width="49.999931"
   height="50.140152"
   viewBox="0 0 13.229148 13.266249"
   version="1.1"
   id="svg1"
   inkscape:export-filename="white-logo.svg"
   inkscape:export-xdpi="96"
   inkscape:export-ydpi="96"
   xml:space="preserve"
   xmlns:inkscape="http://www.inkscape.org/namespaces/inkscape"
   xmlns:sodipodi="http://sodipodi.sourceforge.net/DTD/sodipodi-0.dtd"
   xmlns="http://www.w3.org/2000/svg"
   xmlns:svg="http://www.w3.org/2000/svg"><sodipodi:namedview
     id="namedview1"
     pagecolor="#ffffff"
     bordercolor="#000000"
     borderopacity="0.25"
     inkscape:showpageshadow="2"
     inkscape:pageopacity="0.0"
     inkscape:pagecheckerboard="0"
     inkscape:deskcolor="#d1d1d1"
     inkscape:document-units="mm"><inkscape:page
       x="0"
       y="0"
       width="13.229148"
       height="13.266249"
       id="page2"
       margin="0"
       bleed="0" /></sodipodi:namedview><defs
     id="defs1"><style
       id="style1">
      .cls-1 {
        letter-spacing: -.03em;
      }

      .cls-2, .cls-3 {
        fill: #988342;
      }

      .cls-4 {
        fill: #484724;
      }

      .cls-5 {
        letter-spacing: 0em;
      }

      .cls-3 {
        font-family: LibreBaskerville-Bold, 'Libre Baskerville';
        font-size: 78.06px;
        font-weight: 700;
      }
    </style><style
       id="style1-2">
      .cls-1 {
        letter-spacing: -.03em;
      }

      .cls-2, .cls-3 {
        fill: #988342;
      }

      .cls-4 {
        fill: #484724;
      }

      .cls-5 {
        letter-spacing: 0em;
      }

      .cls-3 {
        font-family: LibreBaskerville-Bold, 'Libre Baskerville';
        font-size: 78.06px;
        font-weight: 700;
      }
    </style><style
       id="style1-5">
      .cls-1 {
        letter-spacing: -.03em;
      }

      .cls-2, .cls-3 {
        fill: #988342;
      }

      .cls-4 {
        fill: #484724;
      }

      .cls-5 {
        letter-spacing: 0em;
      }

      .cls-3 {
        font-family: LibreBaskerville-Bold, 'Libre Baskerville';
        font-size: 78.06px;
        font-weight: 700;
      }
    </style><style
       id="style1-7">
      .cls-1 {
        letter-spacing: -.03em;
      }

      .cls-2 {
        fill: #fff;
      }

      .cls-3, .cls-4 {
        fill: #988342;
      }

      .cls-5 {
        fill: #2d2c17;
      }

      .cls-6 {
        letter-spacing: 0em;
      }

      .cls-4 {
        font-family: LibreBaskerville-Bold, 'Libre Baskerville';
        font-size: 78.06px;
        font-weight: 700;
      }
    </style></defs><path
     id="path3"
     d="M 10.86839,7.616261 H 9.316614 V 6.7114915 h 1.125392 L 6.614934,2.8851616 2.788604,6.7114915 H 3.913249 V 7.616261 H 2.36073 C 2.31543,7.4246104 2.28274,7.2292452 2.26342,7.0294239 2.25078,6.8927422 2.2441,6.7545756 2.2441,6.6149234 2.2441,6.4752702 2.2508,6.3371037 2.26342,6.2004229 V 6.1996857 C 2.34809,5.3053153 2.703178,4.4889432 3.246189,3.833022 3.333859,3.7275402 3.425953,3.6257713 3.522521,3.5292034 c 0.0023,-0.00227 0.0046,-0.00442 0.0067,-0.00668 0.09658,-0.096568 0.198338,-0.1886799 0.30382,-0.2763337 0.655921,-0.5422672 1.473037,-0.8973419 2.366663,-0.9820244 0.136682,-0.012627 0.275591,-0.019315 0.415245,-0.019315 0.139652,0 0.277818,0.00668 0.414501,0.019315 0.894368,0.084685 1.710743,0.4397572 2.366663,0.9827676 0.105484,0.086911 0.206507,0.1782793 0.303075,0.2748475 0.0031,0.00294 0.0059,0.00598 0.0089,0.00891 0.09583,0.096569 0.187938,0.1975941 0.274848,0.302333 0.543012,0.6559211 0.898084,1.4730366 0.982768,2.367407 0.01262,0.136681 0.01932,0.2748482 0.01932,0.4145004 0,0.1396522 -0.0067,0.2778188 -0.01932,0.4145004 -0.01858,0.1998224 -0.05199,0.3951866 -0.09731,0.586837 z M 9.982934,9.3968312 c -0.0869,0.1047386 -0.179022,0.2057636 -0.274847,0.3023321 -0.0031,0.00375 -0.0059,0.00601 -0.0089,0.00886 -0.09658,0.095824 -0.197595,0.187937 -0.302335,0.2748492 -0.655922,0.5437555 -1.47378,0.8988285 -2.368148,0.9835115 0,0 0,0 -7.38e-4,0 L 7.517479,8.2454284 h 3.150353 c 0,0 7.37e-4,0 0.0015,0 -0.170108,0.419701 -0.401872,0.8074588 -0.686377,1.15139 z M 8.713434,7.616261 H 4.51643 V 5.8468349 l 2.098504,-2.0985016 2.0985,2.0985016 z M 6.19969,10.966438 C 5.305318,10.881768 4.488946,10.52668 3.833026,9.9829255 3.727543,9.8960095 3.625776,9.8039031 3.529206,9.7073345 c -0.0023,-0.00228 -0.0046,-0.00375 -0.0067,-0.0067 C 3.425937,9.6040698 3.333826,9.5022973 3.246173,9.3968165 2.961689,9.0529072 2.729927,8.6651482 2.560561,8.2454483 h 3.179321 l 0.478384,2.7217397 c -0.0059,0 -0.01189,-7.35e-4 -0.01783,-7.35e-4 z m -4.260145,0.323131 v 0 L 2.93717,10.292687 Z M 13.229113,6.6149234 11.811045,6.3556744 C 11.753845,5.1923995 11.312605,4.128663 10.61137,3.2877775 l -0.170851,0.2607337 c 0.614323,0.7636315 1.004309,1.7144573 1.06968,2.7521937 L 11.268777,6.2561343 C 11.195231,5.2941662 10.828279,4.4131671 10.25704,3.7015338 10.22509,3.6606758 10.19167,3.6205638 10.1575,3.5804523 L 10.297146,3.3776584 10.470969,3.1258388 11.291799,1.9373061 10.10401,2.7581362 C 9.289871,2.0212464 8.242479,1.5376628 7.088116,1.4329239 l 0.06314,0.3053035 C 8.179336,1.8503956 9.11382,2.2819812 9.851453,2.9319595 L 9.649403,3.0716118 C 8.956339,2.4773464 8.086485,2.0814164 7.131202,1.9759343 7.079212,1.9699543 7.02646,1.9655293 6.97372,1.9610763 L 6.92916,1.7189134 h 7.38e-4 L 6.874163,1.4180668 6.614915,0 6.354924,1.4180668 C 5.191651,1.4752668 4.127172,1.9165074 3.28703,2.6169985 L 3.548507,2.7885927 C 4.312141,2.1750132 5.262967,1.7842838 6.299961,1.7189142 l -0.04457,0.242163 c -0.961968,0.07354 -1.842968,0.4404999 -2.553859,1.0102526 -0.04086,0.03268 -0.08171,0.066114 -0.121081,0.1002823 L 3.377659,2.9319595 3.125837,2.757394 1.938047,1.9373071 H 1.93731 L 2.758141,3.125839 C 2.020511,3.9392397 1.537668,4.9866335 1.432927,6.1409954 L 1.738233,6.0778574 C 1.8504,5.0490336 2.281986,4.1152929 2.931965,3.3776606 L 3.071618,3.5804541 C 2.476609,4.2735168 2.081423,5.1426304 1.975196,6.0971698 c -0.0059,0.051995 -0.01037,0.1054818 -0.01486,0.1582238 v 7.373e-4 l -0.241422,0.044571 c 0,-7.364e-4 0,-7.364e-4 0,-0.00148 L 1.418067,6.3549379 V 6.355678 L 0,6.6149262 1.418067,6.8741752 c 0.05719,1.1640183 0.49844,2.2277539 1.198931,3.0686393 l 0.1716,-0.260732 C 2.174273,8.9184502 1.784288,7.9668818 1.718918,6.9291456 l 0.24142,0.044571 c 0.07354,0.9619677 0.440501,1.8437094 1.010997,2.5546006 0.03268,0.040856 0.06611,0.081703 0.100286,0.1210816 L 2.931968,9.8521923 2.757402,10.104012 1.938057,11.291059 v 0 0 0 l -7.36e-4,7.38e-4 h 7.36e-4 v -7.38e-4 h 7.38e-4 v 0 -7.37e-4 l 1.186303,-0.818601 c 0.814144,0.737632 1.861538,1.221216 3.017384,1.325213 L 6.078592,11.491629 C 5.049026,11.380206 4.114542,10.947875 3.376909,10.297897 l 0.202795,-0.140396 c 0.693061,0.595754 1.562918,0.990941 2.518201,1.097165 0.05198,0.0059 0.104741,0.01115 0.157481,0.01486 h 7.36e-4 l 0.04382,0.241421 0.05497,0.300846 0.259991,1.417326 v 0.03713 l 0.261472,-1.45521 c 1.162533,-0.05719 2.226269,-0.498438 3.066412,-1.19893 L 9.681311,10.441258 c -0.762889,0.612836 -1.713715,1.003566 -2.750709,1.068935 l 0.04309,-0.240679 v 0 c 0.961968,-0.07353 1.84371,-0.440499 2.554601,-1.011738 0.04086,-0.03269 0.08171,-0.06611 0.121081,-0.10028 l 0.202795,0.140395 0.25182,0.173824 1.187788,0.820087 -0.820088,-1.187789 c 0.736137,-0.8141422 1.220463,-1.8607927 1.324462,-3.0166401 l -0.305305,0.063886 C 11.378687,8.1800751 10.947101,9.1145576 10.297121,9.8521905 L 10.157471,9.6494013 C 10.75248,8.9563388 11.147667,8.0864819 11.253893,7.1312 c 0.0059,-0.051995 0.01037,-0.1047398 0.01486,-0.1574807 l 0.241412,-0.044575 0.300847,-0.05497 0.259247,-0.047546 1.15659,-0.2117078 h 0.0023"
     style="fill:#907f35;fill-opacity:1;fill-rule:nonzero;stroke:none;stroke-width:0.00742832" /></svg>
