<?xml version="1.0" encoding="UTF-8" standalone="no"?>
<!-- Created with Inkscape (http://www.inkscape.org/) -->

<svg
   width="136.11969"
   height="46.779442"
   viewBox="0 0 36.015 12.377061"
   version="1.1"
   id="svg1"
   inkscape:export-filename="black-logo.svg"
   inkscape:export-xdpi="96"
   inkscape:export-ydpi="96"
   xml:space="preserve"
   xmlns:inkscape="http://www.inkscape.org/namespaces/inkscape"
   xmlns:sodipodi="http://sodipodi.sourceforge.net/DTD/sodipodi-0.dtd"
   xmlns="http://www.w3.org/2000/svg"
   xmlns:svg="http://www.w3.org/2000/svg"><sodipodi:namedview
     id="namedview1"
     pagecolor="#ffffff"
     bordercolor="#000000"
     borderopacity="0.25"
     inkscape:showpageshadow="2"
     inkscape:pageopacity="0.0"
     inkscape:pagecheckerboard="0"
     inkscape:deskcolor="#d1d1d1"
     inkscape:document-units="mm"><inkscape:page
       x="0"
       y="0"
       width="36.014999"
       height="12.377061"
       id="page2"
       margin="0"
       bleed="0" /></sodipodi:namedview><defs
     id="defs1"><style
       id="style1">
      .cls-1 {
        letter-spacing: -.03em;
      }

      .cls-2, .cls-3 {
        fill: #988342;
      }

      .cls-4 {
        fill: #484724;
      }

      .cls-5 {
        letter-spacing: 0em;
      }

      .cls-3 {
        font-family: LibreBaskerville-Bold, 'Libre Baskerville';
        font-size: 78.06px;
        font-weight: 700;
      }
    </style><style
       id="style1-2">
      .cls-1 {
        letter-spacing: -.03em;
      }

      .cls-2, .cls-3 {
        fill: #988342;
      }

      .cls-4 {
        fill: #484724;
      }

      .cls-5 {
        letter-spacing: 0em;
      }

      .cls-3 {
        font-family: LibreBaskerville-Bold, 'Libre Baskerville';
        font-size: 78.06px;
        font-weight: 700;
      }
    </style><style
       id="style1-5">
      .cls-1 {
        letter-spacing: -.03em;
      }

      .cls-2, .cls-3 {
        fill: #988342;
      }

      .cls-4 {
        fill: #484724;
      }

      .cls-5 {
        letter-spacing: 0em;
      }

      .cls-3 {
        font-family: LibreBaskerville-Bold, 'Libre Baskerville';
        font-size: 78.06px;
        font-weight: 700;
      }
    </style><style
       id="style1-7">
      .cls-1 {
        letter-spacing: -.03em;
      }

      .cls-2 {
        fill: #fff;
      }

      .cls-3, .cls-4 {
        fill: #988342;
      }

      .cls-5 {
        fill: #2d2c17;
      }

      .cls-6 {
        letter-spacing: 0em;
      }

      .cls-4 {
        font-family: LibreBaskerville-Bold, 'Libre Baskerville';
        font-size: 78.06px;
        font-weight: 700;
      }
    </style></defs><g
     id="g3"
     transform="matrix(0.12004753,0,0,0.12004753,14.453889,0.00588965)"><path
       id="path14"
       d="m 4.6089509,49.593831 h -7.373056 V 45.296997 H 2.5804785 L -15.591106,27.121885 -33.766218,45.296997 h 5.344583 v 4.296834 h -7.376583 c -0.211667,-0.910167 -0.370417,-1.837973 -0.458612,-2.790473 -0.05997,-0.649111 -0.09172,-1.305278 -0.09172,-1.9685 0,-0.663222 0.03175,-1.319389 0.09172,-1.9685 v -0.0035 c 0.402167,-4.247445 2.088445,-8.124473 4.667251,-11.239501 0.416278,-0.500944 0.853722,-0.98425 1.312333,-1.442861 0.01058,-0.01058 0.02117,-0.02117 0.03175,-0.03175 0.458611,-0.458611 0.941917,-0.896055 1.442861,-1.312333 3.115028,-2.575278 6.995584,-4.261556 11.239501,-4.663723 0.649111,-0.05997 1.308806,-0.09172 1.972028,-0.09172 0.663222,0 1.319389,0.03175 1.9685,0.09172 4.2474449,0.402167 8.1244729,2.088445 11.2395009,4.667251 0.5009445,0.41275 0.9807223,0.846666 1.43933343,1.305277 0.014111,0.01411 0.028222,0.02822 0.042333,0.04233 0.4550834,0.458611 0.8925279,0.938389 1.3052779,1.435805 2.57880567,3.115028 4.26508357,6.995584 4.66725027,11.243029 0.059972,0.649111 0.091722,1.305278 0.091722,1.9685 0,0.663222 -0.03175,1.319389 -0.091722,1.9685 -0.091722,0.9525 -0.2504723,1.880306 -0.4621389,2.790473 z m -4.20511137,8.452556 c -0.41275,0.497416 -0.8501945,0.977194 -1.3052779,1.435805 -0.0141111,0.01764 -0.0282222,0.02822 -0.0423333,0.04233 -0.45861113,0.455083 -0.93838893,0.892528 -1.43580563,1.305278 -3.115028,2.582333 -6.9991116,4.268611 -11.2465567,4.670778 -0.0035,0 -0.0035,0 -0.0035,0.0035 l 2.321251,-12.922253 H 3.652923 c 0.00353,0 0.00353,0 0.00706,0 -0.8043378,1.993194 -1.9085323,3.834694 -3.25614347,5.464528 z M -5.6286609,49.593831 H -25.557079 v -8.406695 l 9.965973,-9.962445 9.9624451,9.962445 z M -17.563134,65.500582 c -4.247445,-0.402167 -8.124473,-2.088445 -11.239501,-4.670778 -0.500944,-0.41275 -0.98425,-0.850195 -1.442861,-1.308806 -0.01058,-0.01058 -0.02117,-0.01764 -0.03175,-0.03175 -0.458611,-0.458611 -0.896055,-0.941917 -1.312333,-1.442861 -1.351139,-1.629834 -2.455334,-3.471334 -3.259667,-5.464528 h 15.102417 l 2.268362,12.925778 c -0.02822,-0.0035 -0.05645,-0.0035 -0.08114,-0.0071 z m -20.231807,1.534583 v 0 l 4.737806,-4.734278 z M 15.820229,44.834858 9.0857011,43.603664 C 8.8140621,38.079163 6.7185621,33.027385 3.3883397,29.03394 l -0.811389,1.23825 c 2.9174724,3.626556 4.7695559,8.142112 5.0800004,13.070418 L 6.5104232,43.130941 C 6.1611732,38.562469 4.4184509,34.378524 1.7055896,30.998913 1.5538951,30.804885 1.3951451,30.614385 1.2328673,30.423885 l 0.6632223,-0.963083 0.8255,-1.195917 3.8981947,-5.644445 -5.64091697,3.898195 C -2.8875774,23.019079 -7.8617444,20.722495 -13.343911,20.225079 l 0.299861,1.449917 c 4.8824445,0.532694 9.3203892,2.582333 12.82347283,5.669139 L -1.1801328,28.007357 C -4.4715497,25.185135 -8.6025777,23.304829 -13.1393,22.803884 c -0.246945,-0.02822 -0.497417,-0.04939 -0.747889,-0.07055 l -0.211667,-1.150056 h 0.0035 l -0.264584,-1.42875 -1.231194,-6.734528 -1.234722,6.734528 c -5.524501,0.271639 -10.579807,2.367139 -14.569724,5.693834 l 1.241778,0.814917 c 3.626556,-2.913945 8.142112,-4.769556 13.06689,-5.080001 l -0.211667,1.150056 c -4.568472,0.34925 -8.752417,2.091972 -12.1285,4.797778 -0.194028,0.155222 -0.388056,0.313972 -0.575028,0.47625 l -0.963084,-0.663222 -1.195916,-0.829028 -5.640917,-3.894667 h -0.0035 l 3.898195,5.644445 c -3.503084,3.862917 -5.79614,8.837084 -6.293556,14.319251 l 1.449916,-0.299861 c 0.532695,-4.885973 2.582334,-9.32039 5.66914,-12.823473 l 0.663222,0.963083 c -2.82575,3.291417 -4.702528,7.418917 -5.207,11.952112 -0.02822,0.246944 -0.04939,0.500944 -0.07056,0.751417 v 0.0035 l -1.146524,0.211689 c 0,-0.0035 0,-0.0035 0,-0.0071 l -1.42875,0.264584 v 0.0035 l -6.734528,1.231194 6.734528,1.231195 c 0.271639,5.528028 2.367139,10.579806 5.693834,14.573251 l 0.814916,-1.238179 c -2.917472,-3.626555 -4.769555,-8.145639 -5.08,-13.073945 l 1.146528,0.211667 c 0.34925,4.568472 2.091972,8.755945 4.801306,12.132028 0.155222,0.194028 0.313972,0.388056 0.47625,0.575028 l -0.663222,0.963084 -0.829028,1.195916 -3.891139,5.63739 v 0 0 0 l -0.0035,0.0035 h 0.0035 v 0 -0.0035 h 0.0035 v 0 l 5.633862,-3.89114 c 3.866445,3.503084 8.840612,5.799667 14.329834,6.293556 l -0.303389,-1.449916 c -4.8895,-0.529167 -9.327445,-2.582334 -12.830528,-5.66914 l 0.963083,-0.66675 c 3.291417,2.829278 7.422445,4.706056 11.959167,5.210528 0.246945,0.02822 0.497417,0.05292 0.747889,0.07056 h 0.0035 l 0.208139,1.146528 0.261056,1.42875 1.234722,6.731 v 0.179917 l 1.23825,-6.910917 C -8.8318833,69.243554 -3.7801052,67.148054 0.21333953,63.817832 L -1.0284384,63.006443 c -3.6265558,2.913944 -8.1385838,4.769555 -13.0668896,5.08 l 0.204611,-1.143 0.0035,-0.0035 c 4.5685003,-0.349278 8.7559728,-2.092 12.1320564,-4.804862 0.1940278,-0.155222 0.3880556,-0.313972 0.5750278,-0.47625 l 0.96308343,0.66675 1.1959167,0.8255 5.64091697,3.894667 -3.8946669,-5.640917 C 6.2211454,57.538387 8.5212571,52.567747 9.0151451,47.078525 L 7.5652288,47.381914 C 7.0325344,52.267886 4.9828953,56.705831 1.8960896,60.208915 L 1.2328673,59.245831 c 2.8257502,-3.291417 4.7025281,-7.422445 5.2070003,-11.959167 0.028222,-0.246945 0.049389,-0.497417 0.070556,-0.747889 l 1.1465279,-0.211667 1.4287496,-0.261055 1.2311949,-0.225778 5.49275,-1.005417 h 0.01058"
       style="fill:#907f35;fill-opacity:1;fill-rule:nonzero;stroke:none;stroke-width:0.0352778" /><path
       id="path15"
       d="m -19.101245,46.231858 h 3.097389 v -3.097389 h -3.097389 v 3.097389"
       style="fill:#907f35;fill-opacity:1;fill-rule:nonzero;stroke:none;stroke-width:0.0352778" /><path
       id="path16"
       d="m -11.886939,39.017552 h -3.097389 v 3.097389 h 3.097389 v -3.097389"
       style="fill:#907f35;fill-opacity:1;fill-rule:nonzero;stroke:none;stroke-width:0.0352778" /><path
       id="path17"
       d="m -19.101245,42.114941 h 3.097389 v -3.097389 h -3.097389 v 3.097389"
       style="fill:#907f35;fill-opacity:1;fill-rule:nonzero;stroke:none;stroke-width:0.0352778" /><path
       id="path18"
       d="m -11.886939,43.134469 h -3.097389 v 3.097389 h 3.097389 v -3.097389"
       style="fill:#907f35;fill-opacity:1;fill-rule:nonzero;stroke:none;stroke-width:0.0352778" /><path
       id="path19"
       d="M 89.042789,63.260443 C 86.238206,62.346748 86.474567,60.321804 86.5804,57.89822 V 36.812691 c 0,-2.3495 -1.23825,-6.007806 -2.677583,-7.905751 -6.223001,-8.212667 -20.637501,-4.004028 -26.765252,2.430639 -6.219472,-10.625667 -19.681473,-7.443611 -27.678946,-0.6985 v -6.346472 l -16.891001,4.970639 c -0.08114,0.331611 -0.07408,0.613833 0,0.860778 v 1.499305 c 0,0 2.12725,0.123473 3.760611,1.245306 0.758473,0.518583 1.414639,1.248834 1.700389,2.286 0,0.0035 0.0035,0.01058 0.0035,0.01411 0.03881,0.137584 0.07761,0.261056 0.123472,0.370417 0.119945,0.405695 0.208139,0.853722 0.278695,1.361722 0.6985,5.139973 0.508,16.774585 0.105833,22.140335 -0.08467,1.143 -0.278694,2.921 -1.234722,3.700639 -1.104195,0.896056 -4.593167,0.874889 -4.769556,1.04775 -0.130528,0.127 0.08114,1.975556 -0.0035,2.462389 h 22.919974 c -0.109361,-0.550332 0.1905,-2.158999 -0.03881,-2.430638 -0.673805,-0.797278 -5.330472,0.529167 -5.933722,-3.407833 l -0.01411,-26.063224 c 3.167944,-4.497917 15.395223,-10.191751 16.84514,-2.405945 1.255888,6.762751 0.906638,21.166668 0.691444,28.405669 -0.186972,0.585611 -0.342194,1.284111 -0.66675,1.799167 -1.255889,1.975555 -4.98475,1.386416 -5.242278,1.633361 -0.116417,0.112889 0.08114,1.989667 0,2.469444 h 22.567195 c 0.631472,-4.367389 -1.8415,-2.084916 -3.873501,-3.002139 -0.236361,-0.105833 -0.497416,-0.366889 -0.744361,-0.702028 -0.670278,-0.913694 -1.001889,-2.032 -1.005416,-3.164416 l -0.01058,-25.033113 c 2.642306,-3.944056 11.800418,-8.787695 15.663335,-4.395612 1.354666,1.545167 1.845027,4.829529 1.975555,6.840362 0.07056,1.097139 0.109361,2.208389 0.127,3.326695 v 0.05644 c 0.01764,0.966611 0.01411,1.93675 0,2.913945 V 59.70797 c 0,2.257778 -1.830917,4.088695 -4.092222,4.088695 h -2.049639 l 0.0035,-0.01764 -0.0035,0.0035 c -0.112889,0.112889 0.08467,1.989667 0.0035,2.469444 h 22.567219 c 0.522112,-3.598335 -0.853722,-2.229557 -3.178528,-2.991557"
       style="fill:#ffffff;fill-opacity:1;fill-rule:nonzero;stroke:none;stroke-width:0.0352778"
       sodipodi:nodetypes="ccscccccccccccccccccccccccccccccccccccssccsccc" /><path
       id="path20"
       d="m 137.69438,60.441748 c -0.17992,-0.1905 -1.05128,-1.665111 -1.05128,-1.770945 V 25.35094 h -16.92275 c -0.56797,3.693584 1.20297,2.303639 3.36197,3.517195 2.26836,1.273528 2.81869,4.452056 2.99861,6.872111 0.30339,4.078112 0.10936,8.374945 -0.0212,12.650612 -0.0953,2.991556 -0.15875,5.976056 0,8.861779 -0.0353,0.183444 -0.11641,0.373944 -0.23988,0.567972 -0.0106,0.01764 -0.0176,0.03175 -0.0282,0.04939 -1.06186,1.845028 -4.3568,3.852334 -4.3568,3.852334 0,0 -3.28789,1.919111 -7.45067,1.329972 -0.14464,-0.01764 -0.28928,-0.03881 -0.43392,-0.0635 l -0.26105,-0.03175 c -0.74436,-0.08819 -1.43933,-0.321028 -2.0567,-0.66675 -1.71802,-0.956028 -2.8575,-2.786945 -2.8575,-4.861278 v -7.84578 L 108.08574,25.35094 H 91.159456 c 0.08819,0.525639 -0.130528,2.691695 0,2.818695 0.07761,0.07055 1.439334,0.04586 2.049639,0.243416 1.686278,0.546806 3.242028,1.471084 3.781778,3.273778 0.08467,0.289278 0.515056,2.504723 0.515056,2.656417 V 50.84972 c 0,0 0,0.04939 0,0.141111 0,0.963083 0.02822,6.625167 0.70203,8.646584 2.695221,6.455833 8.611301,8.763 15.476361,7.574139 0.0141,-0.0035 0.0282,-0.0035 0.0423,-0.0071 6.11717,-1.107722 12.33311,-6.642806 12.33311,-6.642806 v 0.758473 c 0.004,-0.0035 0.004,-0.0035 0.007,-0.0035 v 5.993695 l 16.59467,-2.973917 c 0.46566,-0.306917 0.42333,-2.568223 0.32455,-2.663473 -0.32102,-0.310444 -4.01814,0.127 -5.29166,-1.231194"
       style="fill:#ffffff;fill-opacity:1;fill-rule:nonzero;stroke:none;stroke-width:0.0352778" /><path
       id="path21"
       d="m 176.83507,47.399553 c -2.36714,-2.984501 -7.69055,-5.115278 -11.14777,-6.836834 -3.84528,-1.908528 -16.83103,-5.669139 -11.0737,-11.874501 4.69547,-5.062361 12.47422,1.80975 15.7092,5.475112 1.68275,1.905 2.44475,4.974167 5.461,4.236861 l -0.38806,-11.250084 c -4.72722,-1.393472 -9.525,-3.129139 -14.55208,-2.808111 -13.30325,0.846666 -19.12056,14.668501 -7.59178,22.662446 4.76603,3.305528 13.24328,5.0165 17.2085,8.882945 2.77989,2.712861 0.64911,7.002639 -2.70228,8.15975 -6.23358,2.148417 -12.15319,-4.66725 -15.32467,-9.172223 -1.53105,-2.169583 -1.12889,-3.697111 -4.50497,-3.076222 v 12.340167 c 8.37142,2.945695 18.06928,5.715001 25.9962,0.08114 5.42572,-3.855861 7.20372,-11.412362 2.91041,-16.820445"
       style="fill:#ffffff;fill-opacity:1;fill-rule:nonzero;stroke:none;stroke-width:0.0352778" /><path
       id="path22"
       d="m -60.852498,39.585524 c -2.032,16.510001 -16.383001,26.92753 -32.83303,23.756058 -3.84175,-0.740834 -5.326944,-2.645834 -5.626806,-6.420556 V 20.58844 c 0,-3.827639 0.123473,-7.591778 0.469195,-11.235973 0.275167,-2.871611 1.097139,-4.586111 2.610556,-5.577417 1.255889,-0.8255 2.9845,-1.157111 5.277556,-1.23825 0.03528,0 0.07056,-0.0035 0.105833,-0.0035 22.457835,-0.723194 32.557863,16.217196 29.996696,37.052252 z m -18.453807,-39.63458497 -41.095085,0.01058 V 2.713186 l 3.25614,0.169333 c 2.61056,0.426861 5.81378,1.284111 6.23358,4.342695 v 20.429365 30.508224 c -0.34572,3.150306 -1.55927,4.490862 -4.88597,5.111751 -0.4833,0.09172 -0.96661,0.123472 -1.43228,0.134055 l -3.17147,-0.02822 v 2.875139 c 14.60853,-0.232833 29.294668,0.479778 43.860863,-0.398639 40.569447,-5.252861 38.81967,-63.42592 -2.765778,-65.90594797"
       style="fill:#ffffff;fill-opacity:1;fill-rule:nonzero;stroke:none;stroke-width:0.0352778" /><path
       id="path23"
       d="m 104.06832,76.093719 c -1.45934,-0.938444 -3.52227,-1.405599 -6.168101,-1.405599 h -9.529135 v 1.099675 c 0.744141,0.02894 1.322917,0.140559 1.682585,0.305924 0.355534,0.165365 0.60358,0.467155 0.74414,0.880566 0.107487,0.438217 0.165365,1.099675 0.165365,1.955437 v 12.72067 c 0,0.855761 -0.08268,1.517219 -0.223243,1.955436 -0.136425,0.467154 -0.413411,0.773079 -0.826822,0.938444 -0.409278,0.165364 -1.045931,0.248046 -1.843815,0.248046 v 1.099675 h 10.934735 v -1.099675 c -1.157555,0 -2.013317,-0.08268 -2.592093,-0.248046 -0.574641,-0.165365 -0.934309,-0.496094 -1.128613,-0.967383 -0.190169,-0.467155 -0.272851,-1.153418 -0.272851,-2.062923 v -5.399154 c 0.30179,0 0.603581,0.08268 0.963248,0.276986 0.33073,0.194303 0.715202,0.578776 1.182357,1.128613 l 6.829553,8.371582 h 6.52777 v -1.099675 c -0.63252,0 -1.24023,-0.140559 -1.84381,-0.413411 -0.60772,-0.248047 -1.13275,-0.636654 -1.57097,-1.157552 l -6.3872,-7.325651 c 1.92649,-0.359668 3.33209,-1.045931 4.21266,-2.067057 0.88057,-1.016992 1.31878,-2.31097 1.31878,-3.824056 0,-1.682584 -0.7152,-2.976562 -2.17454,-3.910872 z m -8.561755,0.136426 h 2.393654 c 1.26917,0 2.257231,0.359668 2.972431,1.07487 0.71933,0.715201 1.07487,1.649511 1.07487,2.836002 0,1.513086 -0.41341,2.616894 -1.26504,3.303157 -0.855761,0.690398 -2.149741,1.021127 -3.881937,1.021127 H 95.010472 V 76.6973 c 0,-0.301791 0.165364,-0.467155 0.496093,-0.467155 z m 25.776205,17.623729 c -0.77308,0.359668 -1.54202,0.525033 -2.3151,0.525033 -1.34773,0 -2.39366,-0.525033 -3.16674,-1.599902 -0.79788,-1.045931 -1.18235,-2.45153 -1.18235,-4.237467 0,-0.442351 0.0248,-0.744141 0.10748,-0.909506 h 8.86768 c 0.41341,0 0.69039,-0.02894 0.77308,-0.111621 0.0827,-0.05374 0.13643,-0.219108 0.13643,-0.525032 0,-1.86862 -0.54984,-3.327963 -1.62471,-4.402832 -1.07487,-1.045931 -2.58796,-1.570964 -4.54339,-1.570964 -1.54203,0 -2.91869,0.330729 -4.10518,0.992188 -1.18236,0.661458 -2.1208,1.570963 -2.77812,2.724381 -0.6904,1.186491 -1.02113,2.534212 -1.02113,4.047298 0,1.459343 0.33073,2.728516 0.96325,3.82819 0.63252,1.128613 1.51722,1.984375 2.64583,2.616895 1.12861,0.632519 2.45153,0.938443 3.96462,0.938443 2.50527,0 4.57233,-0.938443 6.25078,-2.836002 l -0.77308,-0.967383 c -0.7152,0.636654 -1.45934,1.128613 -2.19935,1.488281 z m -5.15111,-10.26914 c 0.60358,-0.636653 1.29398,-0.967382 2.09186,-0.967382 0.6904,0 1.26918,0.248046 1.73633,0.773079 0.46716,0.520899 0.68627,1.182357 0.68627,1.980241 0,0.305924 -0.10749,0.496093 -0.30179,0.578776 -0.19431,0.08268 -0.68627,0.14056 -1.43041,0.14056 h -3.99355 c 0.19017,-1.021126 0.57877,-1.847949 1.21129,-2.505274 z m 11.42979,6.742741 c -0.74413,0.719336 -1.13274,1.51722 -1.13274,2.426725 0,0.578776 0.14056,1.128613 0.44235,1.649512 0.30179,0.525032 0.74414,0.938444 1.32291,1.240234 0.57878,0.330729 1.29398,0.496094 2.14561,0.496094 1.02113,0 1.98437,-0.248047 2.836,-0.77308 0.85577,-0.520898 1.54203,-1.2361 2.03812,-2.145605 h 0.14056 c 0,0.963249 0.21911,1.67845 0.68626,2.174544 0.44236,0.525033 1.07488,0.773079 1.9265,0.773079 0.66146,0 1.26917,-0.140559 1.81901,-0.413411 0.54984,-0.276986 0.93844,-0.636654 1.18236,-1.07487 l -0.40928,-0.797884 c -0.30592,0.248047 -0.60771,0.355534 -0.9095,0.355534 -0.35967,0 -0.60772,-0.190169 -0.74415,-0.578776 -0.16536,-0.355534 -0.24804,-0.963249 -0.24804,-1.761133 v -6.031673 c 0,-1.761132 -0.44235,-3.001367 -1.32292,-3.741373 -0.88056,-0.74414 -2.36884,-1.103809 -4.46071,-1.103809 -1.89756,0 -3.33209,0.248047 -4.29534,0.77308 -0.96325,0.520898 -1.45934,1.265039 -1.45934,2.199349 0,0.525032 0.13642,0.909505 0.44234,1.215429 0.27286,0.301791 0.65733,0.467155 1.18236,0.467155 0.52504,0 0.93431,-0.14056 1.24024,-0.413411 0.30179,-0.276986 0.54984,-0.63252 0.68626,-1.045931 0.24805,-0.690397 0.52503,-1.186491 0.79788,-1.459343 0.27699,-0.248047 0.6904,-0.388606 1.21544,-0.388606 1.51308,0 2.28203,1.021126 2.28203,3.059244 v 1.157552 l -3.853,1.649512 c -1.62471,0.690397 -2.8112,1.405599 -3.55121,2.091862 z m 6.99079,1.790071 c -0.27285,0.471289 -0.63252,0.826823 -1.07073,1.07487 -0.44235,0.248047 -0.90951,0.384473 -1.43454,0.384473 -0.5209,0 -0.96325,-0.136426 -1.26504,-0.438216 -0.30179,-0.301791 -0.46715,-0.690397 -0.46715,-1.186491 0,-0.438216 0.13642,-0.851628 0.43821,-1.2361 0.30593,-0.388607 0.77308,-0.797885 1.45935,-1.211296 0.69039,-0.413411 1.5999,-0.909505 2.75332,-1.459342 v 2.61276 c 0,0.525033 -0.13643,1.021126 -0.41342,1.459342 z m 7.16235,-18.037141 v 0.938444 c 0.85163,0 1.43041,0.08268 1.76114,0.219108 0.30179,0.14056 0.52503,0.442351 0.60771,0.909506 0.0538,0.248046 0.10749,0.715201 0.13643,1.405598 0.0289,0.686264 0.0537,1.56683 0.0537,2.641699 v 11.372949 c 0,0.855762 -0.0537,1.51722 -0.16536,1.955436 -0.13643,0.467155 -0.35553,0.77308 -0.7152,0.938444 -0.35554,0.19017 -0.88057,0.301791 -1.56683,0.330729 v 1.099675 h 8.67337 v -1.099675 c -0.6904,-0.02894 -1.2113,-0.140559 -1.57097,-0.305924 -0.35553,-0.136426 -0.57877,-0.467155 -0.66145,-0.93431 -0.10749,-0.467155 -0.16537,-1.211295 -0.16537,-2.174544 V 73.034474 Z m 12.06232,18.727538 c 0,1.07487 0.35553,1.901693 1.07487,2.476335 0.68626,0.578776 1.67845,0.8847 2.94349,0.8847 1.90169,0 3.11299,-0.661458 3.63802,-1.955436 l -0.57878,-0.797884 c -0.35966,0.657324 -0.9095,0.988054 -1.6247,0.988054 -0.57878,0 -0.99219,-0.248047 -1.24024,-0.744141 -0.24805,-0.467155 -0.38447,-1.265039 -0.38447,-2.393652 v -8.454264 h 3.16673 v -1.513086 h -3.16673 v -3.332096 h -1.4056 c -0.35967,0.797884 -0.93844,1.542025 -1.67845,2.174544 -0.74414,0.632519 -1.68259,1.128613 -2.75332,1.430404 v 1.240234 h 2.00918 z m 23.23992,-8.25996 c 0.33073,-0.607715 0.63252,-1.07487 0.88057,-1.37666 0.24805,-0.305925 0.52503,-0.525033 0.79788,-0.636654 0.24805,-0.08268 0.55398,-0.136426 0.90951,-0.136426 v -1.099674 h -6.63526 v 1.099674 c 0.79789,0 1.34773,0.08268 1.62471,0.248047 0.24805,0.165365 0.38448,0.496094 0.38448,0.963249 0,0.194303 -0.0248,0.44235 -0.0827,0.690397 -0.0827,0.248047 -0.19017,0.603581 -0.35553,1.016992 -0.1943,0.442351 -0.44235,1.045931 -0.77308,1.819011 l -2.36885,5.370214 h -0.10749 l -2.81119,-8.040852 c -0.0827,-0.194304 -0.13643,-0.413412 -0.16537,-0.607715 -0.0537,-0.19017 -0.0827,-0.355534 -0.0827,-0.496094 0,-0.355534 0.14056,-0.632519 0.44235,-0.768945 0.27285,-0.14056 0.76894,-0.194304 1.48828,-0.194304 v -1.099674 h -8.34677 v 1.099674 c 0.47128,0.02894 0.85576,0.08268 1.12861,0.194304 0.27698,0.107487 0.52503,0.330729 0.74414,0.661458 0.1943,0.355534 0.44235,0.880567 0.7152,1.595768 l 4.87412,12.059212 -0.74001,1.434538 c -0.47128,0.909505 -1.54202,1.405599 -3.16673,1.542024 -0.71933,0.05374 -1.24023,0.219113 -1.54202,0.467153 -0.33073,0.24805 -0.4961,0.60772 -0.4961,1.07487 0,0.4961 0.19017,0.88057 0.54984,1.18236 0.35553,0.30592 0.85163,0.44235 1.45934,0.44235 0.79789,0 1.59577,-0.27699 2.39366,-0.82682 0.80201,-0.52504 1.37666,-1.2113 1.76526,-2.00918 l 6.30453,-13.220901 c 0.46715,-1.016992 0.88056,-1.843815 1.21129,-2.447396 z m 0,0"
       style="fill:#907f35;fill-opacity:1;fill-rule:nonzero;stroke:none;stroke-width:0.352778"
       aria-label="Realty" /></g></svg>
